<?xml version="1.0" encoding="UTF-8" standalone="no"?>
<svg
   xmlns:dc="http://purl.org/dc/elements/1.1/"
   xmlns:cc="http://creativecommons.org/ns#"
   xmlns:rdf="http://www.w3.org/1999/02/22-rdf-syntax-ns#"
   xmlns:svg="http://www.w3.org/2000/svg"
   xmlns="http://www.w3.org/2000/svg"
   xmlns:sodipodi="http://sodipodi.sourceforge.net/DTD/sodipodi-0.dtd"
   xmlns:inkscape="http://www.inkscape.org/namespaces/inkscape"
   inkscape:export-ydpi="96"
   inkscape:export-xdpi="96"
   inkscape:export-filename="C:\Users\Osakwe\Documents\Education\Holmesglen\2020 Semester 1\Automate Processes\Assessment 2\FrndIcon.png"
   sodipodi:docname="FrndIcon.svg"
   inkscape:version="1.0 (4035a4fb49, 2020-05-01)"
   id="svg938"
   version="1.1"
   viewBox="0 0 64 64.000004"
   height="64"
   width="64">
  <defs
     id="defs932" />
  <sodipodi:namedview
     inkscape:window-maximized="1"
     inkscape:window-y="-8"
     inkscape:window-x="-8"
     inkscape:window-height="1017"
     inkscape:window-width="1920"
     inkscape:pagecheckerboard="false"
     inkscape:object-paths="true"
     inkscape:snap-grids="false"
     inkscape:snap-global="false"
     units="px"
     showgrid="true"
     inkscape:document-rotation="0"
     inkscape:current-layer="layer1"
     inkscape:document-units="px"
     inkscape:cy="68.310078"
     inkscape:cx="-12.513441"
     inkscape:zoom="4"
     inkscape:pageshadow="2"
     inkscape:pageopacity="1"
     borderopacity="1.0"
     bordercolor="#666666"
     pagecolor="#ffffff"
     id="base">
    <inkscape:grid
       empspacing="8"
       id="grid940"
       type="xygrid" />
  </sodipodi:namedview>
  <metadata
     id="metadata935">
    <rdf:RDF>
      <cc:Work
         rdf:about="">
        <dc:format>image/svg+xml</dc:format>
        <dc:type
           rdf:resource="http://purl.org/dc/dcmitype/StillImage" />
        <dc:title />
      </cc:Work>
    </rdf:RDF>
  </metadata>
  <g
     id="layer1"
     inkscape:groupmode="layer"
     inkscape:label="Layer 1">
    <path
       sodipodi:nodetypes="caaacaaaacc"
       id="path1098"
       d="m 43.620243,61.127602 c 0,0 6.378116,-9.133275 6.375,-14.375 -0.0035,-5.917356 -1.98218,-13.458438 -7.215993,-16.219292 -5.641389,-2.975852 -13.186431,0.462061 -18.820619,3.451525 -5.192032,2.754859 -7.67265,7.186738 -12.357233,12.578427 0.353554,-6.629126 1.700257,-14.189784 5.643845,-19.81066 4.337025,-6.181649 10.950533,-11.871645 18.375,-13.25 7.074909,-1.313459 15.246725,1.016471 20.875,5.5 6.02655,4.800798 9.125367,12.935392 10.737046,20.469943 1.966827,9.194859 -1.737046,28.155057 -1.737046,28.155057 z"
       style="fill:#66b8a0;fill-opacity:1;stroke:#000000;stroke-width:2;stroke-linecap:round;stroke-linejoin:round;stroke-miterlimit:4;stroke-dasharray:none;stroke-opacity:1" />
    <path
       sodipodi:nodetypes="casccccsscc"
       id="path1472"
       d="m 47.169253,33.404945 c -1.951571,3.469457 -3.120317,7.434955 -2.666525,11.267886 0.346013,2.922586 1.880035,6.919077 3.983267,7.879382 6.45196,2.945868 15.901679,6.288393 15.901679,6.288393 L 63.520309,64.839874 2.877089,64.984444 2.587968,59.9971 c 0,0 13.766846,-3.192819 19.782095,-5.71056 2.263148,-0.947262 4.080057,-1.705036 4.465274,-4.014663 0.671018,-4.023169 -3.004849,-4.043523 -3.004849,-4.043523 z"
       style="fill:#66b8a0;fill-opacity:1;stroke:#000000;stroke-width:2;stroke-linecap:round;stroke-linejoin:round;stroke-miterlimit:4;stroke-dasharray:none;stroke-opacity:1" />
    <path
       sodipodi:nodetypes="cssscaaaaasc"
       id="path942"
       d="m 36.627898,44.50446 c -1.74734,1.374394 -4.432487,2.497243 -7.181538,3.181946 -2.415914,0.601729 -5.829125,0.918764 -8.16772,0.909555 -2.793268,-0.011 -4.24968,-3.901381 -5.336093,-7.112792 -2.130282,-6.297063 -3.208389,-14.073095 -0.79228,-19.825188 1.419653,-3.192917 4.179559,-5.910269 7.257611,-7.564271 3.695565,-1.985825 8.188797,-2.372961 12.382436,-2.254236 3.639048,0.103024 7.533929,0.624982 10.617032,2.560895 1.902069,1.194329 3.386623,3.147689 4.268605,5.213214 0.997458,2.335957 1.202529,5.040031 0.919978,7.56427 -0.269752,2.409905 -1.191095,4.77815 -2.453277,6.848731 -0.823139,1.350342 -3.60235,2.253325 -3.737256,9.061257"
       style="fill:#66b8a0;fill-opacity:1;stroke:#000000;stroke-width:2;stroke-linecap:round;stroke-linejoin:round;stroke-miterlimit:4;stroke-dasharray:none;stroke-opacity:1" />
    <path
       sodipodi:nodetypes="cssc"
       id="path968"
       d="m 22.275888,32.063801 -2.849112,5.840228 c -0.39968,0.81928 0.36756,1.736882 1.603621,1.780313 l 1.131865,0.03977"
       style="fill:#66b8a0;fill-opacity:1;stroke:#000000;stroke-width:2;stroke-linecap:round;stroke-linejoin:round;stroke-miterlimit:4;stroke-dasharray:none;stroke-opacity:1" />
    <path
       sodipodi:nodetypes="cc"
       id="path970"
       d="m 20.275888,42.782551 c 1.652289,0.170088 3.425721,0.220782 5.1875,-0.21875"
       style="fill:none;stroke:#000000;stroke-width:2;stroke-linecap:round;stroke-linejoin:round;stroke-miterlimit:4;stroke-dasharray:none;stroke-opacity:1" />
    <path
       style="fill:#f6fffc;fill-opacity:1;stroke:none;stroke-width:2;stroke-linecap:round;stroke-linejoin:round;stroke-miterlimit:4;stroke-dasharray:none;stroke-opacity:1"
       d="m 31.422058,31.55464 c 0,0 -0.921809,-2.267489 -3.800699,-2.209709 -2.065286,0.04145 -2.342292,1.988739 -2.342292,1.988739 0,0 0.574122,2.451809 2.342292,2.474873 3.049514,0.03978 3.800699,-2.253903 3.800699,-2.253903 z"
       id="path1012"
       sodipodi:nodetypes="cscsc" />
    <path
       sodipodi:nodetypes="cscsc"
       id="path1014"
       d="m 16.307649,31.333669 c 0,0 0.630013,-2.267489 2.5976,-2.209709 1.411527,0.04145 1.600847,1.988739 1.600847,1.988739 0,0 -0.392385,2.451809 -1.600847,2.474873 -2.084201,0.03978 -2.5976,-2.253903 -2.5976,-2.253903 z"
       style="fill:#f6fffc;fill-opacity:1;stroke:none;stroke-width:2;stroke-linecap:round;stroke-linejoin:round;stroke-miterlimit:4;stroke-dasharray:none;stroke-opacity:1" />
    <ellipse
       ry="1.8119612"
       rx="1.6572815"
       cy="31.201088"
       cx="27.289902"
       id="path1028"
       style="fill:#978454;fill-opacity:1;fill-rule:evenodd;stroke:none;stroke-width:2;stroke-linecap:round;stroke-linejoin:round;stroke-miterlimit:4;stroke-dasharray:none;stroke-opacity:1" />
    <ellipse
       style="fill:#978454;fill-opacity:1;fill-rule:evenodd;stroke:none;stroke-width:2;stroke-linecap:round;stroke-linejoin:round;stroke-miterlimit:4;stroke-dasharray:none;stroke-opacity:1"
       id="path1028-8"
       cx="17.920738"
       cy="31.245281"
       rx="1.4142135"
       ry="1.8119612" />
    <path
       sodipodi:nodetypes="csc"
       id="path1008"
       d="m 25.279067,31.33367 c 0,0 0.277006,-1.94729 2.342292,-1.988739 2.87889,-0.05778 3.800699,2.209709 3.800699,2.209709"
       style="fill:none;stroke:#000000;stroke-width:2;stroke-linecap:round;stroke-linejoin:round;stroke-miterlimit:4;stroke-dasharray:none;stroke-opacity:1" />
    <path
       style="fill:none;fill-opacity:1;stroke:#000000;stroke-width:2;stroke-linecap:round;stroke-linejoin:round;stroke-miterlimit:4;stroke-dasharray:none;stroke-opacity:1"
       d="m 20.506096,31.112699 c 0,0 -0.18932,-1.94729 -1.600847,-1.988739 -1.967587,-0.05778 -2.5976,2.209709 -2.5976,2.209709"
       id="path1016"
       sodipodi:nodetypes="csc" />
    <path
       sodipodi:nodetypes="csccsc"
       id="path1047"
       d="m 15.188932,27.773548 c 0,0 1.746613,-1.158461 3.328427,-1.257044 1.787278,-0.111388 2.828427,0.486136 2.828427,0.486136 m 3.226175,0.132587 c 0,0 1.498089,-0.540011 3.270369,-0.53033 2.45031,0.01338 3.959169,1.040514 3.959169,1.040514"
       style="fill:none;stroke:#000000;stroke-width:2;stroke-linecap:round;stroke-linejoin:round;stroke-miterlimit:4;stroke-dasharray:none;stroke-opacity:1" />
    <path
       sodipodi:nodetypes="csscssscsssssssssssscssccsssssssssssssssssssssssscsssssssssssssssssssssssssssssssssssssssssssssccssssscsssscsssccscscssccc"
       id="path1018"
       d="m 14.716646,37.344082 c -0.340148,0.08504 -1.550335,0.159067 -1.635185,-0.265165 -0.02941,-0.147069 -0.02207,-0.3536 0.0442,-0.486136 0.06215,-0.124304 0.319241,-0.255283 0.220971,-0.353553 -0.04663,-0.0466 -0.417166,-0.01912 -0.486136,-0.0442 -0.314172,-0.114244 -0.767928,-0.371174 -1.016466,-0.574524 -0.63881,-0.522662 -0.929577,-1.199989 -1.104855,-1.988738 -0.02875,-0.129377 0.01573,-0.454679 -0.04419,-0.574524 -0.345703,-0.691406 -1.3590315,-0.793907 -1.6351843,-1.944544 -0.1174399,-0.489332 -0.062137,-1.359057 0,-1.856155 0.028683,-0.229464 0.265165,-0.751933 0.265165,-1.016466 0,-0.123171 -0.233272,-0.109346 -0.265165,-0.220971 -0.3119511,-1.09183 -0.137132,-2.591206 -0.088388,-3.71231 7.8e-4,-0.01795 0.063549,-0.75275 0.088388,-0.83969 C 9.0931173,23.350498 9.4030139,22.93961 9.3691599,22.804194 9.3472931,22.716726 8.5916496,22.429612 8.5294706,22.362252 8.28827,22.100951 8.365969,21.389811 8.396888,21.080621 8.456781,20.481692 8.751443,19.762232 9.1039948,19.26866 c 0.1229277,-0.172099 0.7071068,-0.510334 0.7071068,-0.707107 0,-0.05995 -0.5900242,-0.554413 -0.4861359,-1.281631 0.1289006,-0.902304 1.3520043,-1.83814 1.9445433,-2.43068 0.09694,-0.09693 -0.864056,-1.143818 -0.353553,-1.767767 0.283641,-0.346672 0.691306,-0.858618 1.06066,-1.104854 0.178769,-0.119179 1.063274,-0.319831 1.104854,-0.486136 0.07251,-0.290031 0.7572,-0.756832 0.7942,-1.053077 0.115449,-0.9235984 1.312368,-1.4217073 2.12132,-1.5026023 0.179015,-0.017902 1.185867,0.1031394 1.237437,0 0.22553,-0.451061 0.484774,-0.7677749 1.016466,-0.9722719 0.950784,-0.3656862 2.355702,-0.2663232 3.358757,-0.1325825 0.01902,0.00254 0.359557,0.069293 0.397748,0.088388 0.0325,0.016252 0.139562,0.213991 0.176776,0.1767767 0.743097,-0.7430965 1.917207,-1.7312354 2.872622,-2.1655146 0.447373,-0.2033517 2.537409,-0.1942885 2.961009,-0.088388 0.111044,0.027761 0.762991,0.4744462 0.83969,0.3977475 0.165787,-0.165787 0.205886,-0.6735942 0.574524,-0.7071067 2.218638,-0.2016944 5.089743,-0.1454135 6.584932,1.7235727 0.103118,0.1288984 0.602437,-0.4575899 0.707107,-0.4861359 0.877804,-0.2394011 2.09322,-0.1157052 2.961009,0 0.350614,0.046749 0.74342,0.2185404 1.016466,0.4419418 0.158394,0.1295953 0.139076,0.6438522 0.309359,0.5303301 0.248832,-0.1658878 0.457693,-0.42772 0.751301,-0.5745243 1.869079,-0.9345394 2.939562,0.7917862 4.464913,1.6717961 0.32372,0.1867614 0.598067,0.5421017 0.928078,0.7071068 0.609143,0.3045715 1.88332,-0.2536231 2.607456,0.1325825 0.847757,0.452137 1.981745,2.291105 2.65165,2.96101 0.132061,0.13206 1.673437,-0.189403 2.386486,0.618718 0.562784,0.637823 -0.01605,2.591411 0.265165,2.872621 0.05138,0.05138 0.409174,0.128676 0.486136,0.176777 0.232879,0.14555 0.423727,0.506045 0.574524,0.707107 0.786538,1.048717 0.326838,2.278034 -0.353559,3.270364 0.478287,0 0.567212,0.333947 0.928078,0.574524 1.631442,1.087625 0.441626,2.801726 -0.04419,4.198447 -0.04088,0.117521 -0.758585,1.187415 -0.53033,1.370019 0.799765,0.639812 1.559553,0.951776 1.458408,2.165515 -0.08315,0.997792 -0.375549,0.826887 -0.795496,1.546796 -0.344038,0.589781 0.407104,1.222877 0.353554,1.811961 -0.10083,1.109129 -0.976426,1.529891 -1.59099,2.298097 -0.206111,0.257638 0.134044,2.650188 -0.30936,3.093592 -0.398456,0.398457 -1.670744,-0.09702 -1.900349,0.132582 -0.10623,0.10623 -0.03564,0.301276 -0.08839,0.441942 -0.08318,0.221806 -0.930576,0.942026 -1.016466,1.016466 -0.250768,0.217332 -0.713868,-0.0068 -0.883884,-0.176776 -0.04349,-0.04348 -1.404313,0.08949 -1.414213,0.08839 -1.599119,-0.17768 -1.994255,-0.8894 -3.005204,-1.90035 -0.02236,-0.02236 -0.226455,0.236135 -0.265165,0.265165 -0.142009,0.1065 -0.277397,0.0912 -0.441942,0.04419 -0.415379,-0.11868 -0.616854,-0.617553 -0.972272,-0.83969 -0.315722,-0.197326 -0.768223,-0.315705 -1.104854,-0.441941 -0.307595,-0.115348 -0.486153,-0.383026 -0.751301,-0.530331 -0.16289,-0.0905 -0.377675,-0.06992 -0.53033,-0.176776 -0.328955,-0.230269 -0.634577,-0.806407 -0.707107,-1.193243 -7.64e-4,-0.0041 4.74e-4,-0.707107 0,-0.707107 -1.038379,0 -1.194152,0.08657 -1.767767,-1.06066 -0.454217,-0.908434 0.574524,-1.718801 0.574524,-1.811961 0,-0.276531 -0.643728,-0.711267 -0.795495,-0.928078 -0.202111,-0.288737 -0.36977,-1.02282 -0.220971,-1.370019 0.04185,-0.09764 0.176777,-0.158936 0.176777,-0.265165 0,-0.17365 -0.733509,0.168007 -1.104854,-0.04419 -0.377283,-0.21559 -0.536265,-1.07579 -0.574525,-1.458408 -0.01466,-0.146583 0,-0.589256 0,-0.441942 0,0.766838 -0.152293,1.112246 -0.839689,1.37002 -0.08701,0.03263 -0.372048,-0.11409 -0.397748,-0.08839 -0.103662,0.103663 -0.1293,0.744729 -0.22097,0.928078 -0.08516,0.170312 -0.46032,0.411531 -0.618719,0.53033 -0.179759,0.13482 -0.206334,-0.456578 -0.441942,-0.220971 -0.275926,0.275927 0.197818,0.966666 -0.176776,1.59099 -0.186771,0.311292 0.03948,1.140046 -0.04419,1.502602 -0.08559,0.370874 -0.266195,0.576583 -0.441942,0.928078 -0.129526,0.259051 -0.163033,0.53033 -0.486136,0.53033 -0.10328,0 -0.299808,-0.03265 -0.397748,0 -0.03549,0.01183 -0.235355,0.1182 -0.265165,0.08839 -0.346331,-0.346331 -0.373431,-0.968895 -0.441941,-1.414213 -0.02475,-0.160822 0.118514,-0.486136 -0.0442,-0.486136 -0.353232,0 0.01867,0.515019 -0.618718,0.132582 -0.231878,-0.139126 -0.362868,-0.118738 -0.397748,-0.397747 -0.06863,-0.549013 0.510576,-1.433968 0.486136,-1.458408 -0.07855,-0.07859 -0.487892,0.0051 -0.618718,-0.08839 -0.570111,-0.407222 -0.04146,-1.055193 -0.265165,-1.502602 -0.07622,-0.152435 -0.499993,-0.248684 -0.618719,-0.486136 -0.160948,-0.321897 0.170735,-0.385668 0.265165,-0.574524 0.01121,-0.02241 -0.536081,0.02249 -0.883883,-0.220971 -0.28554,-0.199878 -0.977358,-1.635185 -0.662913,-1.635185 0.185044,0 -0.473476,0.174277 -0.486136,0.176777 -0.546033,0.109203 -1.556639,0.485508 -2.12132,0.132583 -0.208178,-0.130112 -0.476764,-0.523185 -0.574524,-0.751301 -0.04062,-0.09478 0.0858,-0.36656 0,-0.30936 -1.051101,0.700734 -0.716773,0.883884 -2.165515,0.883884 -0.235702,0 -0.4835,0.07454 -0.707107,0 -0.275587,-0.09186 -0.534444,-0.426525 -0.574524,-0.707107 -0.0063,-0.04408 -0.01851,-0.353553 -0.04419,-0.353553 -0.07233,0 -0.945764,0.871507 -1.988738,0.662912 -0.155856,-0.03117 -0.918582,-0.733956 -0.972272,-0.707106 -0.435149,0.217574 -0.724114,0.86009 -1.193242,1.016466 -0.218165,0.07273 -0.945953,0.05736 -1.149049,-0.04419 -0.05758,-0.02879 -0.271443,-0.350419 -0.353553,-0.309359 -0.08463,0.04231 -0.130457,0.284074 -0.176777,0.353554 -0.438746,0.658118 -1.699763,0.380908 -2.12132,-0.132583 -0.134461,0.439115 -0.541973,0.630361 -0.83969,0.928078 -0.142891,0.142891 0.414234,0.660281 0.265165,0.883883 -0.206318,0.309478 -0.935192,0.297 -1.237436,0.397748 -0.02693,0.009 0.04946,0.896935 -0.08455,1.164955 -0.266077,3.060749 0.262625,5.869111 0.924225,9.043904 z"
       style="fill:#38313f;fill-opacity:1;stroke:#241f28;stroke-width:2;stroke-linecap:round;stroke-linejoin:round;stroke-miterlimit:4;stroke-dasharray:none;stroke-opacity:1" />
    <path
       style="fill:none;stroke:#5e5e5e;stroke-width:2;stroke-linecap:round;stroke-linejoin:round;stroke-miterlimit:4;stroke-dasharray:none;stroke-opacity:1"
       d="m 29.053878,9.8736066 c 5.833631,-3e-7 8.220116,9.3691644 8.220116,14.1421354 l 3.535534,-0.265165 C 40.897916,18.535664 38.59982,10.22716 33.20813,10.050383 Z"
       id="path1240"
       sodipodi:nodetypes="ccccc" />
    <path
       sodipodi:nodetypes="caaac"
       id="path1006"
       d="m 37.670495,29.833027 c 1.31083,-1.606161 2.554002,-3.241198 4.0625,-2.65625 1.363878,0.528869 1.424475,2.825049 1.09375,4.25 -0.409218,1.763148 -1.74256,3.847984 -3.53125,4.125 -0.702708,0.108829 -1.6875,-0.46875 -1.8125,-1.125"
       style="fill:#66b8a0;stroke:#000000;stroke-width:2;stroke-linecap:round;stroke-linejoin:round;stroke-miterlimit:4;stroke-dasharray:none;stroke-opacity:1;fill-opacity:1" />
    <path
       d="M 26.908203 3.6757812 C 25.950482 3.6568332 25.185262 4.124636 24.716797 4.5234375 C 24.181408 4.9792106 23.852338 5.4440315 23.607422 5.796875 C 22.743245 7.0418661 22.500138 8.3550743 22.271484 9.5039062 C 22.252678 9.5983963 22.247495 9.6565583 22.230469 9.7480469 A 2.6875 3.9075501 9.294676 0 0 21.035156 12.316406 A 2.6875 3.9075501 9.294676 0 0 23.056641 16.605469 A 2.6875 3.9075501 9.294676 0 0 26.339844 13.183594 A 2.6875 3.9075501 9.294676 0 0 26.136719 10.634766 C 26.159384 10.50715 26.168248 10.419185 26.195312 10.283203 C 26.357543 9.4681005 26.648261 8.7088517 26.796875 8.3769531 C 26.903076 8.6419387 27.002079 8.8460246 27.115234 9.1660156 C 27.213924 9.4450955 27.36014 10.6625 27.367188 11.642578 C 27.374188 12.622656 27.318359 13.417969 27.318359 13.417969 L 29.390625 13.017578 L 31.306641 13.707031 C 31.306641 13.707031 31.375467 12.76791 31.367188 11.615234 C 31.358897 10.462558 31.349744 9.1488895 30.884766 7.8339844 C 30.704258 7.3235292 30.474298 6.5646471 30.019531 5.7675781 C 29.564765 4.9705092 28.718471 3.9477447 27.330078 3.7148438 C 27.185705 3.6906253 27.04502 3.6784881 26.908203 3.6757812 z M 8.0605469 3.7617188 C 7.60583 3.7571742 7.1607559 3.7992606 6.7285156 3.8789062 C 5.8640352 4.0381978 5.0528484 4.3458899 4.3242188 4.7265625 C 2.7245986 5.562284 1.8051949 6.8899737 1.09375 7.9414062 C 0.96431115 8.1327018 0.84719679 8.3313314 0.734375 8.53125 A 2.6875 4.4375 26.246584 0 0 -1.6289062 11.154297 A 2.6875 4.4375 26.246584 0 0 -1.1816406 16.324219 A 2.6875 4.4375 26.246584 0 0 3.1914062 13.533203 A 2.6875 4.4375 26.246584 0 0 3.8652344 11.248047 C 4.0809951 10.779639 4.2893107 10.356416 4.40625 10.183594 C 5.0323113 9.2583474 5.6600354 8.542889 6.1757812 8.2734375 C 6.9649022 7.8611613 7.9595541 7.6878133 8.5507812 7.8242188 C 9.2612632 7.9881379 10.237838 8.8006981 11.222656 9.8613281 C 11.535561 10.19832 12.226896 11.265333 12.720703 12.160156 C 13.21451 13.054979 13.570314 13.798828 13.570312 13.798828 L 15.166016 12.480469 L 17.179688 12.076172 C 17.179688 12.076172 16.778432 11.235632 16.222656 10.228516 C 15.66688 9.2213989 15.016105 8.0689252 14.152344 7.1386719 C 13.083892 5.9879713 11.679093 4.4402481 9.4492188 3.9257812 C 8.9796235 3.8174384 8.5152638 3.7662632 8.0605469 3.7617188 z "
       style="color:#000000;font-style:normal;font-variant:normal;font-weight:normal;font-stretch:normal;font-size:medium;line-height:normal;font-family:sans-serif;font-variant-ligatures:normal;font-variant-position:normal;font-variant-caps:normal;font-variant-numeric:normal;font-variant-alternates:normal;font-variant-east-asian:normal;font-feature-settings:normal;font-variation-settings:normal;text-indent:0;text-align:start;text-decoration:none;text-decoration-line:none;text-decoration-style:solid;text-decoration-color:#000000;letter-spacing:normal;word-spacing:normal;text-transform:none;writing-mode:lr-tb;direction:ltr;text-orientation:mixed;dominant-baseline:auto;baseline-shift:baseline;text-anchor:start;white-space:normal;shape-padding:0;shape-margin:0;inline-size:0;clip-rule:nonzero;display:inline;overflow:visible;visibility:visible;opacity:1;isolation:auto;mix-blend-mode:normal;color-interpolation:sRGB;color-interpolation-filters:linearRGB;solid-color:#000000;solid-opacity:1;vector-effect:none;fill:#66b8a0;fill-opacity:1;fill-rule:nonzero;stroke:#000000;stroke-width:2;stroke-linecap:round;stroke-linejoin:round;stroke-miterlimit:4;stroke-dasharray:none;stroke-dashoffset:0;stroke-opacity:1;color-rendering:auto;image-rendering:auto;shape-rendering:auto;text-rendering:auto;enable-background:accumulate;stop-color:#000000;stop-opacity:1"
       id="path1055" />
    <path
       sodipodi:nodetypes="caccccczc"
       id="path1057"
       d="M 23.211549,53.1875 C 18.571161,53.850413 12.020763,55.837745 6.5625,57.625 c -2.7207545,0.890885 -8,3.125 -8,3.125 l -0.1875,7.8125 67.8125,0.5625 v -10 L 50.616879,52.774049 C 45.490355,52.155331 31.929618,59.648118 23.620874,59.407932 15.31213,59.167746 18.88052,55.573985 23.211549,53.1875 Z"
       style="fill:#00791e;fill-opacity:1;stroke:#00360e;stroke-width:2;stroke-linecap:round;stroke-linejoin:round;stroke-miterlimit:4;stroke-dasharray:none;stroke-opacity:1" />
    <path
       style="fill:none;stroke:#5e5e5e;stroke-width:2;stroke-linecap:round;stroke-linejoin:round;stroke-miterlimit:4;stroke-dasharray:none;stroke-opacity:1"
       d="m 37.75,37 -7.9375,7.875 -5.75,0.0625"
       id="path1242" />
    <path
       style="fill:#00ff00;fill-opacity:0.5;stroke:#008000;stroke-width:2;stroke-linecap:round;stroke-linejoin:round;stroke-miterlimit:4;stroke-dasharray:none;stroke-opacity:1;paint-order:normal"
       d="m 34.625,28.375 c -0.8125,0 -22,0.0625 -22,0.0625 -0.185364,2.0625 -0.02245,4.125 0.625,6.1875 l 21.5625,0.125 z"
       id="path1244"
       sodipodi:nodetypes="ccccc" />
    <ellipse
       style="opacity:1;fill:#8a8a8a;fill-opacity:1;fill-rule:evenodd;stroke:#5e5e5e;stroke-width:2;stroke-linecap:round;stroke-linejoin:round;stroke-miterlimit:4;stroke-dasharray:none;stroke-opacity:1"
       id="path1238"
       cx="39.332813"
       cy="31.024309"
       rx="5.3033009"
       ry="7.8665628" />
    <path
       style="fill:none;stroke:#da9e00;stroke-width:2;stroke-linecap:round;stroke-linejoin:round;stroke-miterlimit:4;stroke-dasharray:none;stroke-opacity:1"
       d="m 24.524049,53.125 c -3.9375,2.1875 -9.211549,9 -11.399049,17 9.0625,-7.875 25.916268,-15.605273 34.791268,-18.480273"
       id="path868"
       sodipodi:nodetypes="ccc" />
  </g>
</svg>
