<?xml version="1.0" encoding="UTF-8" standalone="no"?>
<svg
   xmlns:dc="http://purl.org/dc/elements/1.1/"
   xmlns:cc="http://creativecommons.org/ns#"
   xmlns:rdf="http://www.w3.org/1999/02/22-rdf-syntax-ns#"
   xmlns:svg="http://www.w3.org/2000/svg"
   xmlns="http://www.w3.org/2000/svg"
   xmlns:sodipodi="http://sodipodi.sourceforge.net/DTD/sodipodi-0.dtd"
   xmlns:inkscape="http://www.inkscape.org/namespaces/inkscape"
   width="64"
   height="64"
   viewBox="0 0 64 64.000002"
   version="1.1"
   id="svg8"
   inkscape:version="1.0 (4035a4fb49, 2020-05-01)"
   sodipodi:docname="Player.svg"
   inkscape:export-filename="C:\Users\Osakwe\Documents\Education\Holmesglen\2020 Semester 1\Automate Processes\Assessment 2\Player.png"
   inkscape:export-xdpi="96"
   inkscape:export-ydpi="96">
  <defs
     id="defs2" />
  <sodipodi:namedview
     id="base"
     pagecolor="#ffffff"
     bordercolor="#666666"
     borderopacity="1.0"
     inkscape:pageopacity="0.0"
     inkscape:pageshadow="2"
     inkscape:zoom="22.627417"
     inkscape:cx="34.106318"
     inkscape:cy="57.361195"
     inkscape:document-units="px"
     inkscape:current-layer="layer1"
     inkscape:document-rotation="0"
     showgrid="true"
     units="px"
     inkscape:window-width="1920"
     inkscape:window-height="1017"
     inkscape:window-x="-8"
     inkscape:window-y="-8"
     inkscape:window-maximized="1"
     inkscape:snap-global="true"
     inkscape:snap-smooth-nodes="true">
    <inkscape:grid
       type="xygrid"
       id="grid833"
       empspacing="8" />
  </sodipodi:namedview>
  <metadata
     id="metadata5">
    <rdf:RDF>
      <cc:Work
         rdf:about="">
        <dc:format>image/svg+xml</dc:format>
        <dc:type
           rdf:resource="http://purl.org/dc/dcmitype/StillImage" />
        <dc:title></dc:title>
      </cc:Work>
    </rdf:RDF>
  </metadata>
  <g
     inkscape:label="Layer 1"
     inkscape:groupmode="layer"
     id="layer1">
    <path
       style="fill:#d4d4d4;fill-opacity:1;stroke:#ababab;stroke-width:2;stroke-linecap:round;stroke-linejoin:round;stroke-miterlimit:4;stroke-dasharray:none;stroke-opacity:1"
       d="m 24,53 -9,6 v 4 l 9,-2 z"
       id="path947"
       sodipodi:nodetypes="ccccc" />
    <path
       sodipodi:nodetypes="ccccc"
       id="path949"
       d="m 40,53 9,6 v 4 l -9,-2 z"
       style="fill:#d4d4d4;fill-opacity:1;stroke:#ababab;stroke-width:2;stroke-linecap:round;stroke-linejoin:round;stroke-miterlimit:4;stroke-dasharray:none;stroke-opacity:1" />
    <path
       id="path987"
       style="fill:#4a4a4a;fill-opacity:1;stroke:#2a2a2a;stroke-width:2;stroke-linecap:round;stroke-linejoin:round;stroke-miterlimit:4;stroke-dasharray:none;stroke-opacity:1"
       d="M 24 53 L 15 59 L 15 60.333984 L 24 54.333984 L 24 53 z " />
    <path
       d="m 40,53 9,6 v 1.333984 l -9,-6 z"
       style="fill:#4a4a4a;fill-opacity:1;stroke:#2a2a2a;stroke-width:2;stroke-linecap:round;stroke-linejoin:round;stroke-miterlimit:4;stroke-dasharray:none;stroke-opacity:1"
       id="path990" />
    <path
       style="fill:none;stroke:#777777;stroke-width:2;stroke-linecap:round;stroke-linejoin:round;stroke-miterlimit:4;stroke-dasharray:none;stroke-opacity:1"
       d="m 7,46 v -8 m 50,8 v -8"
       id="path853"
       sodipodi:nodetypes="cccc" />
    <path
       style="fill:#d4d4d4;fill-opacity:1;stroke:#ababab;stroke-width:2;stroke-linecap:round;stroke-linejoin:round;stroke-miterlimit:4;stroke-dasharray:none;stroke-opacity:1"
       d="M 11,51 7,46 24,29 h 16 l 17,17 -4,5 z"
       id="path841"
       sodipodi:nodetypes="ccccccc" />
    <path
       sodipodi:nodetypes="cccccc"
       id="path849-6-71-1"
       d="m 17,51 v -4 h -6 v 4 m 13,-4 h -7"
       style="fill:none;stroke:#ababab;stroke-width:2;stroke-linecap:round;stroke-linejoin:round;stroke-miterlimit:4;stroke-dasharray:none;stroke-opacity:1" />
    <path
       style="fill:none;stroke:#ababab;stroke-width:2;stroke-linecap:round;stroke-linejoin:round;stroke-miterlimit:4;stroke-dasharray:none;stroke-opacity:1"
       d="m 47,51 v -4 h 6 v 4 M 40,47 h 7"
       id="path945"
       sodipodi:nodetypes="cccccc" />
    <path
       id="path959"
       style="fill:#4a4a4a;fill-opacity:1;stroke:#2a2a2a;stroke-width:2;stroke-linecap:round;stroke-linejoin:round;stroke-miterlimit:4;stroke-dasharray:none;stroke-opacity:1"
       d="M 24,29 7,46 8.777344,48.222656 25,32 H 39 L 55.22266,48.222656 57,46 40,29 Z" />
    <path
       style="fill:#868686;fill-opacity:1;stroke:#6b6b6b;stroke-width:2;stroke-linecap:round;stroke-linejoin:round;stroke-miterlimit:4;stroke-dasharray:none;stroke-opacity:1"
       d="m 33,63 v -9 l 3,-2 h 2 l 1,2 v 9 z"
       id="path845"
       sodipodi:nodetypes="ccccccc" />
    <path
       id="path847"
       d="m 25,63 v -9 l 1,-2 h 2 l 3,2 v 9 z"
       style="fill:#868686;fill-opacity:1;stroke:#6b6b6b;stroke-width:2;stroke-linecap:round;stroke-linejoin:round;stroke-miterlimit:4;stroke-dasharray:none;stroke-opacity:1"
       sodipodi:nodetypes="ccccccc" />
    <path
       style="fill:#d4d4d4;fill-opacity:1;fill-rule:evenodd;stroke:#ababab;stroke-width:2;stroke-linecap:round;stroke-linejoin:round;stroke-miterlimit:4;stroke-dasharray:none;stroke-opacity:1"
       d="M 35,16 V 11 C 35,4 32,1 32,1 32,1 29,4 29,11 v 5 l -5,6 V 60 H 40 V 22 Z"
       id="path837"
       sodipodi:nodetypes="cccccccccc" />
    <path
       id="path968"
       style="fill:#4a4a4a;fill-opacity:1;fill-rule:evenodd;stroke:#2a2a2a;stroke-width:2;stroke-linecap:round;stroke-linejoin:round;stroke-miterlimit:4;stroke-dasharray:none;stroke-opacity:1"
       d="m 32,1 c 0,0 -3,3 -3,10 0,0 1.056349,-5 3,-5 1.943651,0 3,5 3,5 C 35,4 32,1 32,1 Z m 3,15 v 3 l 5,5.714844 V 22 Z M 24,24.714844 29,19 v -3 l -5,6 z"
       sodipodi:nodetypes="cczcccccccccccc" />
    <path
       id="path849-0"
       d="M 35,27 V 16 h -6 v 11"
       style="fill:none;stroke:#ababab;stroke-width:2;stroke-linecap:round;stroke-linejoin:round;stroke-miterlimit:4;stroke-dasharray:none;stroke-opacity:1"
       sodipodi:nodetypes="cccc" />
    <path
       style="fill:#ba9431;fill-opacity:1;stroke:#917326;stroke-width:2;stroke-linecap:round;stroke-linejoin:round;stroke-miterlimit:4;stroke-dasharray:none;stroke-opacity:1"
       d="m 32,10 c -4,0 -4,14 0,14 4,0 4,-14 0,-14 z"
       id="path839"
       sodipodi:nodetypes="zzz" />
    <path
       sodipodi:nodetypes="cc"
       id="path849-6"
       d="m 27,57 h 2"
       style="fill:none;stroke:#ababab;stroke-width:2;stroke-linecap:round;stroke-linejoin:round;stroke-miterlimit:4;stroke-dasharray:none;stroke-opacity:1" />
    <path
       style="fill:none;stroke:#ababab;stroke-width:2;stroke-linecap:round;stroke-linejoin:round;stroke-miterlimit:4;stroke-dasharray:none;stroke-opacity:1"
       d="m 27,54 h 2"
       id="path849-6-7"
       sodipodi:nodetypes="cc" />
    <path
       style="fill:none;stroke:#ababab;stroke-width:2;stroke-linecap:round;stroke-linejoin:round;stroke-miterlimit:4;stroke-dasharray:none;stroke-opacity:1"
       d="m 27,51 h 2"
       id="path849-6-71"
       sodipodi:nodetypes="cc" />
    <path
       style="fill:none;stroke:#ababab;stroke-width:2;stroke-linecap:round;stroke-linejoin:round;stroke-miterlimit:4;stroke-dasharray:none;stroke-opacity:1"
       d="m 35,57 h 2"
       id="path849-6-5"
       sodipodi:nodetypes="cc" />
    <path
       sodipodi:nodetypes="cc"
       id="path849-6-7-3"
       d="m 35,54 h 2"
       style="fill:none;stroke:#ababab;stroke-width:2;stroke-linecap:round;stroke-linejoin:round;stroke-miterlimit:4;stroke-dasharray:none;stroke-opacity:1" />
    <path
       sodipodi:nodetypes="cc"
       id="path849-6-71-5"
       d="m 35,51 h 2"
       style="fill:none;stroke:#ababab;stroke-width:2;stroke-linecap:round;stroke-linejoin:round;stroke-miterlimit:4;stroke-dasharray:none;stroke-opacity:1" />
    <path
       style="fill:none;stroke:#ababab;stroke-width:2;stroke-linecap:round;stroke-linejoin:round;stroke-miterlimit:4;stroke-dasharray:none;stroke-opacity:1"
       d="m 16,51 h 8"
       id="path849-6-0"
       sodipodi:nodetypes="cc" />
    <path
       sodipodi:nodetypes="ccccc"
       id="path951"
       d="m 26,46 -4,10 v 4 h 4 z"
       style="fill:#d4d4d4;fill-opacity:1;stroke:#ababab;stroke-width:2;stroke-linecap:round;stroke-linejoin:round;stroke-miterlimit:4;stroke-dasharray:none;stroke-opacity:1" />
    <path
       style="fill:#d4d4d4;fill-opacity:1;stroke:#ababab;stroke-width:2;stroke-linecap:round;stroke-linejoin:round;stroke-miterlimit:4;stroke-dasharray:none;stroke-opacity:1"
       d="m 38,46 4,10 v 4 h -4 z"
       id="path953"
       sodipodi:nodetypes="ccccc" />
    <path
       id="path980"
       style="fill:#7d7d7d;fill-opacity:1;fill-rule:evenodd;stroke:#6b6b6b;stroke-width:2;stroke-linecap:round;stroke-linejoin:round;stroke-miterlimit:4;stroke-dasharray:none;stroke-opacity:1"
       d="M 32 1 C 32 1 30.505442 2.6067746 29.628906 6 L 34.371094 6 C 33.494558 2.6067746 32 1 32 1 z " />
    <path
       id="path996"
       style="fill:#4a4a4a;fill-opacity:1;stroke:#2a2a2a;stroke-width:2;stroke-linecap:round;stroke-linejoin:round;stroke-miterlimit:4;stroke-dasharray:none;stroke-opacity:1"
       d="M 38 48.857422 L 42 58.572266 L 42 56 L 38 46 L 38 48.857422 z " />
    <path
       d="m 26,48.857422 -4,9.714844 V 56 l 4,-10 z"
       style="fill:#4a4a4a;fill-opacity:1;stroke:#2a2a2a;stroke-width:2;stroke-linecap:round;stroke-linejoin:round;stroke-miterlimit:4;stroke-dasharray:none;stroke-opacity:1"
       id="path999" />
  </g>
</svg>
